<?xml version="1.0" encoding="utf-8"?>
<!-- Generator: Adobe Illustrator 16.2.0, SVG Export Plug-In . SVG Version: 6.00 Build 0)  -->
<!DOCTYPE svg PUBLIC "-//W3C//DTD SVG 1.1//EN" "http://www.w3.org/Graphics/SVG/1.1/DTD/svg11.dtd">
<svg version="1.1" id="Слой_1" xmlns="http://www.w3.org/2000/svg" xmlns:xlink="http://www.w3.org/1999/xlink" x="0px" y="0px"
	 width="512px" height="512px" viewBox="0 0 512 512" enable-background="new 0 0 512 512" xml:space="preserve">
<path id="instagram-6-icon" d="M414.474,224.292h-35.869c2.613,10.146,4.156,20.744,4.156,31.699
	c0,70.023-56.752,126.773-126.761,126.773c-70.01,0-126.764-56.75-126.764-126.773c0-10.955,1.55-21.555,4.162-31.699H97.53V398.61
	c0,8.742,7.097,15.832,15.86,15.832h285.219c8.767,0,15.864-7.09,15.864-15.832L414.474,224.292L414.474,224.292z M414.474,113.378
	c0-8.75-7.099-15.846-15.864-15.846h-47.525c-8.756,0-15.847,7.096-15.847,15.846v47.545c0,8.744,7.091,15.847,15.847,15.847h47.525
	c8.766,0,15.864-7.103,15.864-15.847V113.378z M256,176.769c-43.764,0-79.233,35.463-79.233,79.223
	c0,43.756,35.471,79.24,79.233,79.24c43.759,0,79.236-35.484,79.236-79.24C335.237,212.231,299.759,176.769,256,176.769
	 M414.474,461.999H97.53C71.284,461.999,50,440.711,50,414.442V97.532c0-26.254,21.284-47.531,47.529-47.531h316.943
	c26.25,0,47.525,21.277,47.525,47.531v316.91C462,440.711,440.724,461.999,414.474,461.999"/>
</svg>
