<?xml version="1.0" encoding="utf-8"?>
<!-- Generator: Adobe Illustrator 16.2.0, SVG Export Plug-In . SVG Version: 6.00 Build 0)  -->
<!DOCTYPE svg PUBLIC "-//W3C//DTD SVG 1.1//EN" "http://www.w3.org/Graphics/SVG/1.1/DTD/svg11.dtd">
<svg version="1.1" id="Слой_1" xmlns="http://www.w3.org/2000/svg" xmlns:xlink="http://www.w3.org/1999/xlink" x="0px" y="0px"
	 width="299.243px" height="86.918px" viewBox="0 0 299.243 86.918" enable-background="new 0 0 299.243 86.918"
	 xml:space="preserve">
<path fill="#353535" d="M279.714,28.418c0,0-13.234,13.423-11.762,18.77c0.361,1.311,4.675,2.703,4.625,4.063
	c-0.125,3.375-11.261,8.781-11.261,8.781s-2.593-2.177-1.014-4.236c0.963-1.256,2.4-2.682,1.92-4.19
	c-0.426-1.341-8.583-3.25-8.5-5.25c-0.083-1.833,3.288-4.315,3.288-4.315l-3.259-13.621h-8.165h-11.139h-7.377l3.274-18.622h-18.398
	l-3.273,18.622h-10.728l-1.191,6.903c-4.354-5.078-11.075-8.146-19.5-8.146c-11.704,0-22.086,5.255-28.494,13.529
	c-1.885-8.843-8.711-13.973-18.859-13.973c-5.869,0-10.953,1.914-16.029,5.305l0.676-3.619h-18.29L94.275,39.73
	c-3.861-7.665-11.789-12.555-22.436-12.555c-6.875,0-13.293,1.818-18.722,4.992H34.428l1.129-6.203
	c1.132-6.211,5.757-9.714,11.741-9.714c2.143,0,5.083,0.454,7.679,1.017l5.081-15.238C54.748,0.564,50.345,0,45.941,0
	C31.946,0,20.095,9.824,17.269,25.625l-1.13,6.543H2.82L0,47.869h13.434c0,0-0.435,2.501-0.588,3.333
	c-0.457,2.485,6.866,1.985,6.866,6.064c0,4.172-14.226,3.393-14.323,8.046c-0.065,3.125,4.656,3.708,3.918,6.78
	c-1.043,4.345-2.761,14.825-2.761,14.825h18.29c0,0,2.677-10.355,2.677-14.355c0-4.457-9.75-3.625-9.75-6.75
	c0-4.848,19-3.368,19-7.75c0.25-3.375-4.643-4.709-5.66-6.697c-0.405-0.79,0.616-3.496,0.616-3.496h7.416
	c-0.533,1.259-0.988,2.559-1.358,3.895c-0.556,2.007,6.527,4.674,6.527,7.007c0,3-20.154,3.927-20.175,7
	c-0.009,1.25,13.259,1.334,13.996,3.705c3.284,9.245,11.75,15.388,23.551,15.388c10.687,0,20.271-4.516,26.736-11.678l-1.75,9.982
	h18.288c0,0,1.459-6.849,2.284-12.216c0.498-3.237-15.471-6.577-15.659-8.202c-0.25-1.625,35.594-4.323,35.688-6.313
	c0.083-1.772-17.375-3.875-16.328-7.695c1.448-5.284,7.678-5.42,11.064-5.42c4.122,0,7.187,1.728,7.928,5.415
	c0.878,4.367,15.139,3.174,15.044,5.701c-0.168,4.503-29.985,5.175-29.5,7.583c-0.25,2.75,13.5,3.75,12.545,8.325
	c-1.077,5.163-3.083,12.821-3.083,12.821h18.398l1.772-10.219c4.008,7.275,11.736,11.914,21.983,11.914
	c11.78,0,22.333-5.355,28.544-13.972c3.09-4.287-12.729-11.058-12.41-12.12c0.25-0.833,19.25-1.25,19.833-5.251
	c0.113-0.772-0.25-1.624-0.25-2.416c0-2.547-0.818-4.73-1.436-6.985h4.478c0,0-1.137,3.317-0.754,4.354
	c1.463,3.965,14.465,6.153,15.046,7.298c-0.083,1.5-28.917,3-29.333,4.667c-0.642,2.57,11.25,7.417,12.842,12.358
	c2.387,7.41,8.762,12.067,17.666,12.067c4.965,0,9.819-0.674,16.484-2.703l0.674-15.58c-4.176,0.785-8.127,1.464-10.723,1.464
	c-5.42,0-10.572-2.821-9.672-7.794c0,0,0.019-0.274,0.125-0.375c2.897-2.737,18.687-2.521,18.854-4.271
	c0.021-2.417-24.833-3.417-25-6.25c-0.083-1.25,11.235,0.095,11.235,0.095l0.96-5.33h14.243c0,0,1.543,6.745,3.063,7.985
	c2.564,2.093,11.896,0.271,11.958,1.771c0.438,1.625-14.308,3.939-14.542,6.979c-0.125,1.625,3.042,0.896,5.261,5.539
	c1.856,3.883,4.322,16.774,4.322,16.774h18.287c0,0,6.713-11.896,11.963-16.813c2.218-2.077-6.051-1.521-5.583-4
	c0.583-2.167,24.667-2.75,25-5.083c0.021-2.083-14.708-2.523-12.667-7.333c1.967-4.636,13.687-21.521,13.687-21.521H279.714z
	 M70.952,61.313c-0.188,1.125,9.224,4.25,8.188,5.5c-2.887,3.483-9.468,2.248-14.524,2.248c-3.7,0-6.553-0.182-8.351-2.623
	c-0.777-1.056-13.527-0.996-13.938-2.5c-0.563-2.063,29.375-4.5,29.563-7.25c0.178-2.606-18.885-1.529-18.5-2.875
	c1.771-6.194,8.675-10.824,15.63-10.824c6.433,0,10.387,3.228,10.316,9.316c0.303,4.133,23.553-0.117,24.178,3.383
	C103.952,57.75,71.296,59.245,70.952,61.313z M170.029,69.061c-5.313,0.143-6.613-0.892-7.047-3.068
	c-0.343-1.721-26.093-1.721-26.676-2.804c-0.918-1.706,32.75-6.417,33-7.75c0.21-1.123-11.417-2.834-9.754-6.434
	c2.092-4.528,9.431-6.017,14.877-6.017c3.976,0,5.979,2.22,7.554,5.125c0.525,0.968,17.208,1.253,17.156,2.325
	c-0.167,3.416-27.583,5.833-27.25,7.916c0.207,1.291,12.989,5.131,11.538,6.448C179.911,67.996,174.536,69.061,170.029,69.061z"/>
</svg>
